<svg width="75" height="18" viewBox="0 0 75 18" fill="none" xmlns="http://www.w3.org/2000/svg">
<g clip-path="url(#clip0_2_213)">
<path d="M2.54886 8.50363H6.13886C6.13886 8.24363 6.13886 8.04363 6.13886 7.91363H12.2589V6.02363H6.70886C7.11062 5.26202 7.72114 4.63069 8.46886 4.20363C9.25717 3.7416 10.1551 3.49984 11.0689 3.50363C11.8101 3.49652 12.5437 3.65434 13.2165 3.96565C13.8893 4.27697 14.4844 4.73399 14.9589 5.30363L17.2289 3.19363C16.4904 2.32413 15.559 1.63924 14.5089 1.19363C13.3627 0.716404 12.1302 0.48148 10.8889 0.50363C9.6723 0.494379 8.46589 0.725466 7.33886 1.18363C6.28038 1.61722 5.331 2.27973 4.55886 3.12363C3.79206 3.94974 3.22727 4.9424 2.90886 6.02363H0.418854V7.87363H2.57886C2.55334 8.0826 2.54331 8.29318 2.54886 8.50363Z" fill="white"/>
<path d="M21.2289 14.6836L18.9589 12.5736C18.4864 13.1469 17.8921 13.6077 17.2192 13.9225C16.5463 14.2373 15.8117 14.3983 15.0689 14.3936C14.1588 14.4095 13.2611 14.1816 12.4689 13.7336C11.7211 13.3065 11.1106 12.6752 10.7089 11.9136H16.2789V10.0636H10.1589C10.1589 9.93362 10.1589 9.73362 10.1589 9.46362H6.54885C6.53497 9.66338 6.53497 9.86386 6.54885 10.0636L4.41885 10.0636V11.9136H6.90885C7.22959 12.9938 7.7941 13.986 8.55885 14.8136C9.331 15.6575 10.2804 16.32 11.3389 16.7536C12.4659 17.2117 13.6723 17.4428 14.8889 17.4336C16.1316 17.4494 17.3642 17.2077 18.5089 16.7236C19.5646 16.2691 20.497 15.5698 21.2289 14.6836Z" fill="white"/>
<path d="M18.1689 0.763672V3.62367H21.2489V8.46367H24.8189V0.763672H18.1689Z" fill="white"/>
<path d="M28.8089 9.46362H25.2489V17.1636H28.8089V9.46362Z" fill="white"/>
<path d="M37.5089 1.50358C36.7452 1.01122 35.884 0.690138 34.9844 0.562436C34.0848 0.434734 33.1683 0.50344 32.2978 0.763827C31.4273 1.02421 30.6235 1.4701 29.9418 2.0708C29.2602 2.6715 28.7167 3.41276 28.3489 4.24358C27.7514 5.58242 27.461 7.03796 27.4989 8.50358H31.1089C31.0232 7.20682 31.3002 5.91181 31.9089 4.76358C32.1431 4.39174 32.4677 4.08533 32.8524 3.87296C33.2371 3.6606 33.6694 3.54922 34.1089 3.54922C34.5483 3.54922 34.9806 3.6606 35.3653 3.87296C35.75 4.08533 36.0747 4.39174 36.3089 4.76358C36.9287 5.90798 37.2096 7.20528 37.1189 8.50358H40.6989C40.7383 7.0346 40.4478 5.57548 39.8489 4.23358C39.3521 3.11464 38.5387 2.16561 37.5089 1.50358Z" fill="white"/>
<path d="M43.8489 13.7437C44.4431 12.4108 44.7334 10.9625 44.6989 9.50366H41.1189C41.2119 10.8021 40.9308 12.1 40.3089 13.2437C40.0747 13.6155 39.75 13.9219 39.3653 14.1343C38.9806 14.3466 38.5483 14.458 38.1089 14.458C37.6694 14.458 37.2371 14.3466 36.8524 14.1343C36.4677 13.9219 36.1431 13.6155 35.9089 13.2437C35.2956 12.0971 35.0183 10.8008 35.1089 9.50366H31.4989C31.4583 10.976 31.7488 12.4386 32.3489 13.7837C32.8318 14.9007 33.6368 15.8485 34.661 16.5057C35.6852 17.163 36.8822 17.5 38.0989 17.4737C39.3156 17.5 40.5125 17.163 41.5367 16.5057C42.5609 15.8485 43.3659 14.9007 43.8489 13.7837V13.7437Z" fill="white"/>
<path d="M52.4189 1.50358C51.6552 1.01122 50.794 0.690138 49.8944 0.562436C48.9948 0.434734 48.0783 0.50344 47.2078 0.763827C46.3373 1.02421 45.5335 1.4701 44.8518 2.0708C44.1702 2.6715 43.6267 3.41276 43.2589 4.24358C42.6648 5.58321 42.3778 7.03872 42.4189 8.50358H46.0289C45.9356 7.20628 46.213 5.9092 46.8289 4.76358C47.0631 4.39174 47.3877 4.08533 47.7724 3.87296C48.1571 3.6606 48.5894 3.54922 49.0289 3.54922C49.4683 3.54922 49.9006 3.6606 50.2853 3.87296C50.67 4.08533 50.9947 4.39174 51.2289 4.76358C51.8516 5.90715 52.136 7.20435 52.0489 8.50358H55.6389C55.6783 7.0346 55.3878 5.57548 54.7889 4.23358C54.284 3.11062 53.4598 2.16115 52.4189 1.50358Z" fill="white"/>
<path d="M58.7889 13.7437C59.3831 12.4108 59.6734 10.9625 59.6389 9.50366H56.0489C56.1444 10.8011 55.8668 12.0988 55.2489 13.2437C55.0147 13.6155 54.69 13.9219 54.3053 14.1343C53.9206 14.3466 53.4883 14.458 53.0489 14.458C52.6094 14.458 52.1771 14.3466 51.7924 14.1343C51.4077 13.9219 51.0831 13.6155 50.8489 13.2437C50.2309 12.0988 49.9534 10.8011 50.0489 9.50366H46.4189C46.3783 10.976 46.6688 12.4386 47.2689 13.7837C47.7518 14.9007 48.5568 15.8485 49.581 16.5057C50.6052 17.163 51.8022 17.5 53.0189 17.4737C54.2356 17.5 55.4325 17.163 56.4567 16.5057C57.4809 15.8485 58.2859 14.9007 58.7689 13.7837L58.7889 13.7437Z" fill="white"/>
<path d="M67.4189 1.50362C66.3898 0.882637 65.2107 0.554443 64.0089 0.554443C62.807 0.554443 61.6279 0.882637 60.5989 1.50362C59.5632 2.15256 58.7368 3.08659 58.2189 4.19362C57.6367 5.55343 57.3635 7.02546 57.4189 8.50362H61.0189C60.9281 7.20532 61.209 5.90802 61.8289 4.76362C62.0457 4.38391 62.3584 4.06773 62.7357 3.84663C63.1129 3.62554 63.5416 3.50726 63.9789 3.50362C64.4205 3.49664 64.8563 3.60449 65.2437 3.8166C65.6311 4.02871 65.9568 4.33781 66.1889 4.71362C66.8067 5.87655 67.084 7.19018 66.9889 8.50362H70.5789C70.6146 7.03496 70.3243 5.57665 69.7289 4.23362C69.2339 3.1226 68.4326 2.17563 67.4189 1.50362Z" fill="white"/>
<path d="M73.7289 13.7437C74.3199 12.4098 74.6101 10.9623 74.5789 9.50366H70.9889C71.0794 10.8008 70.8021 12.0971 70.1889 13.2437C69.9598 13.6223 69.6348 13.9336 69.2467 14.1461C68.8586 14.3586 68.4212 14.4647 67.9789 14.4537C67.5393 14.4642 67.1049 14.3577 66.7201 14.1451C66.3353 13.9325 66.0139 13.6214 65.7889 13.2437C65.1669 12.1 64.8858 10.8021 64.9789 9.50366H61.4189C61.3805 10.9748 61.6673 12.4362 62.2589 13.7837C62.753 14.8925 63.5547 15.8365 64.5689 16.5037C65.5898 17.1434 66.7742 17.4734 67.9789 17.4537C69.1933 17.4769 70.3884 17.1469 71.4189 16.5037C72.437 15.8236 73.2387 14.8657 73.7289 13.7437Z" fill="white"/>
</g>
<defs>
<clipPath id="clip0_2_213">
<rect width="75" height="17" fill="white" transform="translate(0 0.5)"/>
</clipPath>
</defs>
</svg>
