<svg width="89" height="17" viewBox="0 0 89 17" fill="none" xmlns="http://www.w3.org/2000/svg">
<g clip-path="url(#clip0_2_182)">
<path d="M2.13 8.00363H5.72C5.72 7.74363 5.72 7.54363 5.72 7.41363H11.84V5.52363H6.29C6.69177 4.76202 7.30228 4.13069 8.05 3.70363C8.83831 3.2416 9.73627 2.99984 10.65 3.00363C11.3913 2.99652 12.1249 3.15434 12.7977 3.46565C13.4704 3.77697 14.0656 4.23399 14.54 4.80363L16.81 2.69363C16.0716 1.82413 15.1401 1.13924 14.09 0.69363C12.9438 0.216404 11.7113 -0.0185198 10.47 0.00362976C9.25344 -0.00562143 8.04703 0.225466 6.92 0.68363C5.86152 1.11722 4.91215 1.77973 4.14 2.62363C3.37321 3.44974 2.80841 4.4424 2.49 5.52363H0V7.37363H2.16C2.13448 7.5826 2.12446 7.79318 2.13 8.00363Z" fill="white"/>
<path d="M20.81 14.1836L18.54 12.0736C18.0675 12.6469 17.4733 13.1077 16.8004 13.4225C16.1275 13.7373 15.3929 13.8983 14.65 13.8936C13.74 13.9095 12.8422 13.6816 12.05 13.2336C11.3023 12.8065 10.6918 12.1752 10.29 11.4136H15.86V9.56362H9.74C9.74 9.43362 9.74 9.23362 9.74 8.96362H6.13C6.11613 9.16338 6.11613 9.36386 6.13 9.56362L4 9.56361V11.4136H6.49C6.81075 12.4938 7.37525 13.486 8.14 14.3136C8.91215 15.1575 9.86152 15.82 10.92 16.2536C12.0467 16.7128 13.2533 16.9439 14.47 16.9336C15.7127 16.9494 16.9453 16.7077 18.09 16.2236C19.1457 15.7691 20.0781 15.0698 20.81 14.1836Z" fill="white"/>
<path d="M17.75 0.263672V3.12367H20.83V7.96367H24.4V0.263672H17.75Z" fill="white"/>
<path d="M28.39 8.96362H24.83V16.6636H28.39V8.96362Z" fill="white"/>
<path d="M39 6.24362C39.3141 5.68207 39.4729 5.04694 39.46 4.40362C39.476 3.56676 39.2159 2.74792 38.72 2.07362C38.1619 1.37119 37.4165 0.840807 36.57 0.54362C35.5772 0.167293 34.5216 -0.0159892 33.46 0.00361975C32.4082 -0.015115 31.3627 0.168202 30.38 0.54362C29.5565 0.85292 28.8337 1.38211 28.29 2.07362C27.7871 2.7449 27.5231 3.56504 27.54 4.40362C27.5287 5.04361 27.6887 5.67498 28.0034 6.23234C28.3181 6.78971 28.7761 7.25279 29.33 7.57362C29.1039 7.68725 28.8867 7.81762 28.68 7.96362H38.27C38.0634 7.81762 37.8461 7.68725 37.62 7.57362C38.1886 7.25881 38.6644 6.80017 39 6.24362ZM35.26 5.94362C34.7468 6.3055 34.1272 6.48506 33.5 6.45362C32.8788 6.48682 32.265 6.3069 31.76 5.94362C31.5533 5.77759 31.3886 5.56525 31.2792 5.32379C31.1697 5.08232 31.1186 4.81849 31.13 4.55362C31.1182 4.28338 31.17 4.01414 31.2812 3.76752C31.3923 3.52091 31.5597 3.3038 31.77 3.13362C32.2726 2.77326 32.8823 2.59352 33.5 2.62362C34.1272 2.59219 34.7468 2.77174 35.26 3.13362C35.4752 3.30065 35.6473 3.51664 35.7621 3.76364C35.8769 4.01063 35.931 4.28148 35.92 4.55362C35.9258 4.82488 35.865 5.09342 35.743 5.33574C35.621 5.57806 35.4414 5.78678 35.22 5.94362H35.26Z" fill="white"/>
<path d="M43.16 14.7037C43.7146 13.9893 44.0107 13.108 44 12.2037C44.0147 11.4469 43.806 10.7025 43.4 10.0637C43.0923 9.64687 42.7131 9.28798 42.28 9.00366H32.68C32.2571 9.30278 31.8913 9.67535 31.6 10.1037C31.202 10.7313 30.9937 11.4605 31 12.2037C30.9807 13.1044 31.2661 13.9853 31.81 14.7037C32.3923 15.4539 33.1762 16.0227 34.07 16.3437C35.1556 16.7544 36.3095 16.9547 37.47 16.9337C38.6338 16.9547 39.791 16.7545 40.88 16.3437C41.7778 16.0197 42.5674 15.4518 43.16 14.7037ZM39.58 13.7037C38.9476 14.095 38.2187 14.3024 37.475 14.3024C36.7313 14.3024 36.0024 14.095 35.37 13.7037C35.123 13.5112 34.9247 13.2635 34.7909 12.9803C34.6572 12.6972 34.5918 12.3867 34.6 12.0737C34.5901 11.7633 34.6549 11.455 34.7889 11.1749C34.9229 10.8947 35.1222 10.6508 35.37 10.4637C35.9825 10.0418 36.7173 9.83432 37.46 9.87366C38.2122 9.8329 38.957 10.0402 39.58 10.4637C39.8341 10.6462 40.0391 10.8887 40.1769 11.1696C40.3147 11.4505 40.381 11.761 40.37 12.0737C40.3825 12.3908 40.317 12.7062 40.1793 12.9921C40.0416 13.278 39.8358 13.5258 39.58 13.7137V13.7037Z" fill="white"/>
<path d="M51.61 1.00358C50.8464 0.511216 49.9851 0.190138 49.0855 0.0624359C48.186 -0.0652659 47.2694 0.00344014 46.3989 0.263827C45.5284 0.524213 44.7247 0.970098 44.043 1.5708C43.3613 2.1715 42.8178 2.91276 42.45 3.74358C41.8525 5.08242 41.5621 6.53796 41.6 8.00358H45.21C45.1137 6.69443 45.3874 5.38458 46 4.22358C46.2342 3.85174 46.5588 3.54533 46.9435 3.33296C47.3283 3.1206 47.7606 3.00922 48.2 3.00922C48.6394 3.00922 49.0717 3.1206 49.4564 3.33296C49.8412 3.54533 50.1658 3.85174 50.4 4.22358C51.0308 5.37864 51.3155 6.69097 51.22 8.00358H54.8C54.8611 6.52501 54.5877 5.05171 54 3.69358C53.4833 2.58266 52.6524 1.64747 51.61 1.00358Z" fill="white"/>
<path d="M58 13.2437C58.5771 11.9069 58.8503 10.4588 58.8 9.00366H55.22C55.313 10.3021 55.0319 11.6 54.41 12.7437C54.1758 13.1155 53.8512 13.4219 53.4664 13.6343C53.0817 13.8466 52.6494 13.958 52.21 13.958C51.7706 13.958 51.3383 13.8466 50.9535 13.6343C50.5688 13.4219 50.2442 13.1155 50.01 12.7437C49.3968 11.5971 49.1195 10.3008 49.21 9.00366H45.6C45.5594 10.476 45.8499 11.9386 46.45 13.2837C46.9329 14.4007 47.7379 15.3485 48.7622 16.0057C49.7864 16.663 50.9833 17 52.2 16.9737C53.4296 17.0068 54.6407 16.6687 55.6754 16.0033C56.71 15.338 57.5201 14.3763 58 13.2437Z" fill="white"/>
<path d="M66.55 1.00358C65.7864 0.511216 64.9251 0.190138 64.0255 0.0624359C63.126 -0.0652659 62.2094 0.00344014 61.3389 0.263827C60.4684 0.524213 59.6647 0.970098 58.983 1.5708C58.3013 2.1715 57.7578 2.91276 57.39 3.74358C56.7925 5.08242 56.5021 6.53796 56.54 8.00358H60.15C60.0642 6.68808 60.3593 5.37573 61 4.22358C61.2342 3.85174 61.5588 3.54533 61.9435 3.33296C62.3283 3.1206 62.7606 3.00922 63.2 3.00922C63.6394 3.00922 64.0717 3.1206 64.4565 3.33296C64.8412 3.54533 65.1658 3.85174 65.4 4.22358C66.006 5.38603 66.2663 6.6978 66.15 8.00358H69.74C69.7794 6.5346 69.4889 5.07548 68.89 3.73358C68.3932 2.61464 67.5798 1.66561 66.55 1.00358Z" fill="white"/>
<path d="M72.89 13.2437C73.4842 11.9108 73.7746 10.4625 73.74 9.00366H70.15C70.2455 10.3011 69.9679 11.5988 69.35 12.7437C69.1158 13.1155 68.7912 13.4219 68.4064 13.6343C68.0217 13.8466 67.5894 13.958 67.15 13.958C66.7105 13.958 66.2783 13.8466 65.8935 13.6343C65.5088 13.4219 65.1842 13.1155 64.95 12.7437C64.3321 11.5988 64.0545 10.3011 64.15 9.00366H60.54C60.4994 10.476 60.7899 11.9386 61.39 13.2837C61.8729 14.4007 62.6779 15.3485 63.7021 16.0057C64.7264 16.663 65.9233 17 67.14 16.9737C68.3567 17 69.5536 16.663 70.5778 16.0057C71.6021 15.3485 72.4071 14.4007 72.89 13.2837V13.2437Z" fill="white"/>
<path d="M81.49 1.00362C80.461 0.382637 79.2819 0.0544434 78.08 0.0544434C76.8781 0.0544434 75.699 0.382637 74.67 1.00362C73.6381 1.67038 72.8218 2.62218 72.32 3.74362C71.7314 5.08496 71.4446 6.53923 71.48 8.00362H75.08C74.9892 6.70532 75.2702 5.40802 75.89 4.26362C76.1102 3.87802 76.4292 3.55805 76.8141 3.3366C77.199 3.11515 77.636 3.00021 78.08 3.00362C78.5216 2.99664 78.9575 3.10449 79.3449 3.3166C79.7323 3.52871 80.058 3.83781 80.29 4.21362C80.9078 5.37655 81.1851 6.69018 81.09 8.00362H84.68C84.7157 6.53496 84.4254 5.07665 83.83 3.73362C83.3269 2.6187 82.5148 1.67131 81.49 1.00362Z" fill="white"/>
<path d="M87.83 13.2437C88.4211 11.9098 88.7113 10.4623 88.68 9.00366H85.09C85.1805 10.3008 84.9033 11.5971 84.29 12.7437C84.061 13.1223 83.7359 13.4336 83.3478 13.6461C82.9597 13.8586 82.5224 13.9647 82.08 13.9537C81.6405 13.9642 81.2061 13.8577 80.8212 13.6451C80.4364 13.4325 80.115 13.1214 79.89 12.7437C79.2681 11.6 78.987 10.3021 79.08 9.00366H75.48C75.4417 10.4748 75.7285 11.9362 76.32 13.2837C76.825 14.3978 77.6411 15.3423 78.67 16.0037C79.6878 16.6421 80.8687 16.972 82.07 16.9537C83.2777 16.973 84.4653 16.6431 85.49 16.0037C86.5193 15.3279 87.3317 14.3696 87.83 13.2437Z" fill="white"/>
</g>
<defs>
<clipPath id="clip0_2_182">
<rect width="89" height="17" fill="white"/>
</clipPath>
</defs>
</svg>
