<svg width="63" height="17" viewBox="0 0 63 17" fill="none" xmlns="http://www.w3.org/2000/svg">
<g clip-path="url(#clip0_2_166)">
<path d="M5.02907 2.62148C4.26227 3.44759 3.69748 4.44025 3.37907 5.52148H0.889069V7.37148H3.04907C3.03547 7.56791 3.03547 7.76505 3.04907 7.96148H6.60907C6.60907 7.70148 6.60907 7.50148 6.60907 7.37148H12.7291V5.52148H7.17907C7.58083 4.75987 8.19135 4.12854 8.93907 3.70148C9.72738 3.23944 10.6253 2.99768 11.5391 3.00148C12.2804 2.99437 13.0139 3.15219 13.6867 3.4635C14.3595 3.77481 14.9547 4.23184 15.4291 4.80148L17.6991 2.69148C16.9606 1.82197 16.0292 1.13709 14.9791 0.691477C13.8365 0.213936 12.6072 -0.0210283 11.3691 0.00147658C10.1491 -0.0101566 8.93891 0.220995 7.80907 0.681477C6.75059 1.11507 5.80122 1.77758 5.02907 2.62148Z" fill="white"/>
<path d="M5.04907 9.56143H2.88907V11.4114H5.37907C5.69982 12.4916 6.26432 13.4838 7.02907 14.3114C7.80122 15.1553 8.75059 15.8178 9.80907 16.2514C10.9361 16.7095 12.1425 16.9406 13.3591 16.9314C14.6018 16.9472 15.8344 16.7055 16.9791 16.2214C18.0307 15.7784 18.9627 15.0931 19.6991 14.2214L17.4291 12.1114C16.9566 12.6847 16.3623 13.1455 15.6894 13.4603C15.0165 13.7751 14.2819 13.9361 13.5391 13.9314C12.629 13.9473 11.7313 13.7194 10.9391 13.2714C10.1913 12.8443 9.58083 12.213 9.17907 11.4514H14.7491V9.56143H8.62907C8.62907 9.43143 8.62907 9.23143 8.62907 8.96143H5.01907C5.01517 9.16188 5.02519 9.36236 5.04907 9.56143Z" fill="white"/>
<path d="M18.1991 2.86153L20.7991 4.53153C21.1453 4.03702 21.6139 3.64079 22.1591 3.38153C22.7328 3.11902 23.3583 2.98913 23.9891 3.00153C24.6411 2.95761 25.289 3.13366 25.8291 3.50153C26.0363 3.67322 26.2003 3.89113 26.308 4.13776C26.4157 4.38438 26.464 4.65283 26.4491 4.92153C26.4428 5.36842 26.3296 5.80731 26.1191 6.20153C25.795 6.77794 25.3796 7.29802 24.8891 7.74153L24.6091 8.00153H28.8291C29.0888 7.69194 29.3167 7.35691 29.5091 7.00153C29.8609 6.26471 30.0421 5.45804 30.0391 4.64153C30.0588 3.78553 29.8067 2.9453 29.3191 2.24153C28.8171 1.53215 28.1233 0.980593 27.3191 0.651525C26.3683 0.260399 25.347 0.0697537 24.3191 0.0915243C23.0739 0.0364206 21.8325 0.265545 20.6891 0.761525C19.683 1.22116 18.8219 1.9474 18.1991 2.86153Z" fill="white"/>
<path d="M20.8891 14.3515V16.6615H32.5491V13.7615H25.8891L29.4391 10.4215C29.9367 9.98296 30.4013 9.50834 30.8291 9.00146H26.6091L20.8891 14.3515Z" fill="white"/>
<path d="M32.8191 3.69149C32.2232 5.04818 31.9363 6.52033 31.9791 8.00149H35.5791C35.4883 6.70319 35.7693 5.40589 36.3891 4.26149C36.6093 3.87589 36.9283 3.55592 37.3132 3.33447C37.6981 3.11302 38.135 2.99808 38.5791 3.00149C39.0216 2.99555 39.4581 3.10492 39.8456 3.31883C40.2331 3.53274 40.5583 3.84382 40.7891 4.22149C41.4051 5.38148 41.6823 6.69139 41.5891 8.00149H45.1791C45.2128 6.533 44.9226 5.07512 44.3291 3.73149C43.826 2.61657 43.0139 1.66918 41.9891 1.00149C40.9726 0.346281 39.7884 -0.00100237 38.5791 0.00148991C37.3727 -0.00193405 36.1915 0.345504 35.1791 1.00149C34.1508 1.65337 33.3316 2.58712 32.8191 3.69149Z" fill="white"/>
<path d="M42.7891 12.7015C42.5593 13.0794 42.2341 13.3901 41.8461 13.6025C41.4582 13.8149 41.0212 13.9215 40.5791 13.9115C40.1395 13.922 39.7051 13.8155 39.3203 13.6029C38.9355 13.3903 38.6141 13.0792 38.3891 12.7015C37.7746 11.5696 37.4938 10.2866 37.5791 9.00146H33.9791C33.9407 10.4726 34.2276 11.934 34.8191 13.2815C35.3241 14.3956 36.1401 15.3401 37.1691 16.0015C38.1981 16.6225 39.3772 16.9506 40.5791 16.9506C41.781 16.9506 42.96 16.6225 43.9891 16.0015C45.0154 15.3311 45.8276 14.3801 46.3291 13.2615C46.9211 11.9209 47.2113 10.4666 47.1791 9.00146H43.5891C43.672 10.2852 43.395 11.5667 42.7891 12.7015Z" fill="white"/>
<path d="M47.7591 3.69148C47.1529 5.04581 46.8557 6.51806 46.8891 8.00148H50.4991C50.4134 6.70472 50.6904 5.40971 51.2991 4.26148C51.5333 3.88964 51.8579 3.58323 52.2426 3.37086C52.6273 3.1585 53.0596 3.04712 53.4991 3.04712C53.9385 3.04712 54.3708 3.1585 54.7555 3.37086C55.1402 3.58323 55.4649 3.88964 55.6991 4.26148C56.3258 5.40383 56.6137 6.70124 56.5291 8.00148H60.1091C60.1468 6.5369 59.8599 5.08212 59.2691 3.74148C58.7592 2.61605 57.9321 1.66382 56.8891 1.00148C55.8853 0.35105 54.7152 0.00384843 53.5191 0.00147816C52.3097 -0.00101412 51.1255 0.34627 50.1091 1.00148C49.0863 1.65695 48.2712 2.58996 47.7591 3.69148Z" fill="white"/>
<path d="M58.5291 9.00146C58.6221 10.2999 58.341 11.5979 57.7191 12.7415C57.4849 13.1133 57.1602 13.4197 56.7755 13.6321C56.3908 13.8445 55.9585 13.9558 55.5191 13.9558C55.0796 13.9558 54.6473 13.8445 54.2626 13.6321C53.8779 13.4197 53.5533 13.1133 53.3191 12.7415C52.7058 11.5949 52.4285 10.2986 52.5191 9.00146H48.8891C48.8539 10.4733 49.1441 11.9348 49.7391 13.2815C50.2492 14.3953 51.0683 15.3394 52.0991 16.0015C53.1247 16.6167 54.2981 16.9416 55.4941 16.9416C56.69 16.9416 57.8635 16.6167 58.8891 16.0015C59.921 15.3347 60.7373 14.3829 61.2391 13.2615C61.8402 11.9232 62.1373 10.4683 62.1091 9.00146H58.5291Z" fill="white"/>
</g>
<defs>
<clipPath id="clip0_2_166">
<rect width="63" height="17" fill="white"/>
</clipPath>
</defs>
</svg>
