<svg width="111" height="18" viewBox="0 0 111 18" fill="none" xmlns="http://www.w3.org/2000/svg">
<g clip-path="url(#clip0_2_284)">
<path d="M2.13 8.01974H5.72C5.72 7.75974 5.72 7.55974 5.72 7.42974H11.84V5.53974H6.29C6.69177 4.77813 7.30228 4.1468 8.05 3.71974C8.83831 3.25771 9.73627 3.01595 10.65 3.01974C11.3913 3.01263 12.1249 3.17045 12.7977 3.48176C13.4704 3.79308 14.0656 4.2501 14.54 4.81974L16.81 2.70974C16.0716 1.84024 15.1401 1.15535 14.09 0.709743C12.9438 0.232518 11.7113 -0.00240644 10.47 0.019743C9.25344 0.0104918 8.04703 0.241579 6.92 0.699743C5.86152 1.13333 4.91215 1.79584 4.14 2.63974C3.37321 3.46585 2.80841 4.45851 2.49 5.53974H0V7.38974H2.16C2.13448 7.59871 2.12446 7.80929 2.13 8.01974Z" fill="white"/>
<path d="M19.81 14.1997L17.54 12.0897C17.0675 12.663 16.4733 13.1238 15.8004 13.4387C15.1275 13.7535 14.3929 13.9144 13.65 13.9097C12.74 13.9257 11.8422 13.6978 11.05 13.2497C10.3023 12.8227 9.69177 12.1913 9.29 11.4297H14.86V9.57974H8.74C8.74 9.44974 8.74 9.24974 8.74 8.97974H5.13C5.11613 9.1795 5.11613 9.37998 5.13 9.57974H3V11.4297H5.49C5.81075 12.51 6.37525 13.5021 7.14 14.3297C7.91215 15.1736 8.86152 15.8361 9.92 16.2697C11.047 16.7279 12.2534 16.959 13.47 16.9497C14.7127 16.9655 15.9453 16.7238 17.09 16.2397C18.1457 15.7853 19.0781 15.086 19.81 14.1997Z" fill="white"/>
<path d="M28.86 2.58979V0.279785H18.08V3.13979H24.64L21.47 6.72979V8.01979H28.4C27.5796 7.23322 26.5277 6.7318 25.4 6.58979L28.86 2.58979Z" fill="white"/>
<path d="M31.86 14.4498C32.3203 13.7226 32.5663 12.8804 32.57 12.0198C32.6216 10.9162 32.2332 9.83723 31.49 9.01978H24.47V10.1198H26.1C28 10.0798 29 10.7198 29 12.0198C29.0091 12.309 28.943 12.5957 28.808 12.8516C28.673 13.1075 28.4738 13.324 28.23 13.4798C27.5927 13.856 26.8591 14.0368 26.12 13.9998C25.3154 14.0024 24.5155 13.8775 23.75 13.6298C23.0318 13.4114 22.3556 13.0733 21.75 12.6298L20.36 15.3598C21.1664 15.8961 22.0596 16.2886 23 16.5198C24.0421 16.8082 25.1187 16.9529 26.2 16.9498C27.4122 16.9841 28.6172 16.752 29.73 16.2698C30.6017 15.8829 31.3418 15.2505 31.86 14.4498Z" fill="white"/>
<path d="M30.27 2.87979L32.87 4.54979C33.2138 4.05307 33.6831 3.65629 34.23 3.39979C34.8034 3.13629 35.4291 3.00636 36.06 3.01979C36.7119 2.97742 37.3592 3.15334 37.9 3.51979C38.1072 3.69148 38.2713 3.9094 38.379 4.15602C38.4866 4.40265 38.535 4.6711 38.52 4.93979C38.5137 5.38668 38.4006 5.82558 38.19 6.21979C37.8547 6.80273 37.4256 7.32641 36.92 7.76979L36.68 8.01979H40.89C41.156 7.71281 41.3874 7.37746 41.58 7.01979C41.9319 6.28298 42.113 5.4763 42.11 4.65979C42.1297 3.8038 41.8777 2.96357 41.39 2.25979C40.8881 1.55042 40.1943 0.998866 39.39 0.669798C38.4386 0.280591 37.4177 0.0900223 36.39 0.109798C35.1379 0.0829409 33.8962 0.342906 32.76 0.869798C31.7649 1.30459 30.9049 1.99879 30.27 2.87979Z" fill="white"/>
<path d="M34 14.3698V16.6798H45.61V13.7798H39L42.54 10.4398C43.0288 10.005 43.4804 9.52993 43.89 9.01978H39.68L34 14.3698Z" fill="white"/>
<path d="M45 3.82981C44.3508 5.1174 44.0085 6.53783 44 7.97981H55.82C55.3738 7.4016 54.7985 6.93585 54.14 6.61981C53.3051 6.2153 52.3877 6.00992 51.46 6.01981C50.766 5.97758 50.0707 6.07631 49.4159 6.31005C48.7611 6.54378 48.1604 6.90768 47.65 7.37981C47.622 6.15685 48.0619 4.96932 48.88 4.05981C49.2962 3.66909 49.7872 3.36666 50.3234 3.17074C50.8596 2.97482 51.4299 2.88947 52 2.91981C53.0152 2.88452 54.0179 3.1526 54.88 3.68981L56.2 1.07981C55.6023 0.711511 54.9463 0.447737 54.26 0.299814C53.488 0.109093 52.6952 0.0150389 51.9 0.0198143C50.4672 -0.0024513 49.0524 0.34177 47.79 1.01981C46.5981 1.65399 45.6256 2.63344 45 3.82981Z" fill="white"/>
<path d="M59 14.5298C59.5197 13.7228 59.7877 12.7795 59.77 11.8198C59.7883 10.9294 59.5449 10.0532 59.07 9.29978L58.82 9.01978H47.06C47.06 9.13978 47.06 9.23978 47.06 9.34978C46.9116 11.4023 47.5599 13.433 48.87 15.0198C49.5204 15.6968 50.309 16.2259 51.1821 16.571C52.0553 16.9161 52.9925 17.0692 53.93 17.0198C54.9647 17.0388 55.9903 16.8234 56.93 16.3898C57.7821 15.9782 58.4999 15.3332 59 14.5298ZM55.6 13.6698C55.0763 14.0963 54.4149 14.3168 53.74 14.2898C53.0173 14.33 52.3052 14.1021 51.74 13.6498C51.5099 13.4399 51.326 13.1843 51.2002 12.8993C51.0745 12.6144 51.0095 12.3063 51.0095 11.9948C51.0095 11.6833 51.0745 11.3753 51.2002 11.0903C51.326 10.8053 51.5099 10.5497 51.74 10.3398C52.2901 9.92445 52.9607 9.69975 53.65 9.69975C54.3393 9.69975 55.0099 9.92445 55.56 10.3398C55.8049 10.5441 55.9998 10.8017 56.1298 11.0929C56.2598 11.3841 56.3214 11.7011 56.31 12.0198C56.3205 12.3311 56.2613 12.6408 56.1368 12.9263C56.0122 13.2118 55.8254 13.4658 55.59 13.6698H55.6Z" fill="white"/>
<path d="M65.13 3.70973C64.5307 5.06563 64.2404 6.53782 64.28 8.01973H67.89C67.8043 6.72297 68.0813 5.42796 68.69 4.27973C68.9242 3.90789 69.2488 3.60148 69.6336 3.38911C70.0183 3.17675 70.4506 3.06537 70.89 3.06537C71.3295 3.06537 71.7617 3.17675 72.1465 3.38911C72.5312 3.60148 72.8558 3.90789 73.09 4.27973C73.7098 5.42413 73.9908 6.72143 73.9 8.01973H77.48C77.5169 6.55199 77.2301 5.09414 76.64 3.74973C76.1366 2.63197 75.3204 1.68381 74.29 1.01973C73.261 0.398749 72.0819 0.0705566 70.88 0.0705566C69.6781 0.0705566 68.499 0.398749 67.47 1.01973C66.4484 1.67367 65.6362 2.60738 65.13 3.70973Z" fill="white"/>
<path d="M79.64 13.2598C80.2258 11.9246 80.5125 10.4775 80.48 9.01978H76.9C76.993 10.3183 76.7119 11.6162 76.09 12.7598C75.8558 13.1317 75.5312 13.4381 75.1465 13.6504C74.7617 13.8628 74.3294 13.9742 73.89 13.9742C73.4506 13.9742 73.0183 13.8628 72.6336 13.6504C72.2488 13.4381 71.9242 13.1317 71.69 12.7598C71.0768 11.6133 70.7995 10.3169 70.89 9.01978H67.28C67.2448 10.4917 67.5351 11.9531 68.13 13.2998C68.6347 14.4111 69.4466 15.3548 70.47 16.0198C71.499 16.6408 72.6781 16.969 73.88 16.969C75.0819 16.969 76.261 16.6408 77.29 16.0198C78.3249 15.3477 79.1415 14.3886 79.64 13.2598Z" fill="white"/>
<path d="M80.07 3.7097C79.4652 5.06385 79.1746 6.53731 79.22 8.0197H82.83C82.7443 6.72294 83.0213 5.42793 83.63 4.2797C83.8642 3.90786 84.1888 3.60145 84.5736 3.38909C84.9583 3.17672 85.3906 3.06534 85.83 3.06534C86.2695 3.06534 86.7017 3.17672 87.0865 3.38909C87.4712 3.60145 87.7958 3.90786 88.03 4.2797C88.6498 5.4241 88.9308 6.7214 88.84 8.0197H92.42C92.4594 6.55073 92.1689 5.09161 91.57 3.7497C91.0764 2.63663 90.2704 1.69075 89.2497 1.02683C88.229 0.362921 87.0376 0.00952148 85.82 0.00952148C84.6024 0.00952148 83.411 0.362921 82.3903 1.02683C81.3696 1.69075 80.5636 2.63663 80.07 3.7497V3.7097Z" fill="white"/>
<path d="M94.57 13.2598C95.1642 11.927 95.4546 10.4787 95.42 9.01978H91.84C91.9162 10.3078 91.6249 11.591 91 12.7198C90.7658 13.0917 90.4412 13.3981 90.0565 13.6104C89.6717 13.8228 89.2395 13.9342 88.8 13.9342C88.3606 13.9342 87.9283 13.8228 87.5436 13.6104C87.1588 13.3981 86.8342 13.0917 86.6 12.7198C86.0045 11.582 85.7379 10.3007 85.83 9.01978H82.22C82.1795 10.4921 82.4699 11.9547 83.07 13.2998C83.5636 14.4129 84.3696 15.3588 85.3903 16.0227C86.411 16.6866 87.6024 17.04 88.82 17.04C90.0376 17.04 91.229 16.6866 92.2497 16.0227C93.2704 15.3588 94.0764 14.4129 94.57 13.2998V13.2598Z" fill="white"/>
<path d="M104.17 1.01982C103.409 0.524166 102.55 0.1991 101.652 0.0669618C100.753 -0.0651766 99.8372 -0.00125456 98.9659 0.254335C98.0946 0.509925 97.289 0.951123 96.6044 1.54761C95.9198 2.1441 95.3725 2.88173 95 3.70982C94.3986 5.06477 94.1114 6.53819 94.16 8.01982H97.77C97.6767 6.72252 97.9542 5.42544 98.57 4.27982C98.7902 3.89423 99.1092 3.57425 99.4941 3.3528C99.879 3.13135 100.316 3.01642 100.76 3.01982C101.208 3.00656 101.651 3.11252 102.045 3.32688C102.439 3.54124 102.768 3.85629 103 4.23982C103.609 5.38806 103.886 6.68306 103.8 7.97982H107.39C107.429 6.51085 107.139 5.05173 106.54 3.70982C106.029 2.6016 105.205 1.66671 104.17 1.01982Z" fill="white"/>
<path d="M106 12.7197C105.766 13.0916 105.441 13.398 105.056 13.6103C104.672 13.8227 104.239 13.9341 103.8 13.9341C103.361 13.9341 102.928 13.8227 102.544 13.6103C102.159 13.398 101.834 13.0916 101.6 12.7197C100.982 11.5749 100.704 10.2772 100.8 8.97974H97.16C97.1163 10.4513 97.4034 11.9139 98 13.2597C98.4936 14.3728 99.2996 15.3187 100.32 15.9826C101.341 16.6465 102.532 16.9999 103.75 16.9999C104.968 16.9999 106.159 16.6465 107.18 15.9826C108.2 15.3187 109.006 14.3728 109.5 13.2597C110.098 11.9277 110.391 10.4794 110.36 9.01974H106.77C106.867 10.301 106.6 11.5836 106 12.7197Z" fill="white"/>
</g>
<defs>
<clipPath id="clip0_2_284">
<rect width="111" height="18" fill="white"/>
</clipPath>
</defs>
</svg>
