<svg width="77" height="18" viewBox="0 0 77 18" fill="none" xmlns="http://www.w3.org/2000/svg">
<g clip-path="url(#clip0_2_262)">
<path d="M14.1035 17.4336C14.8648 17.433 15.6234 17.3424 16.3635 17.1636H11.8835C12.6101 17.3412 13.3554 17.4319 14.1035 17.4336Z" fill="white"/>
<path d="M12.4935 7.87363V6.02363H6.92342C7.32519 5.26202 7.9357 4.63069 8.68342 4.20363C9.47173 3.7416 10.3697 3.49984 11.2835 3.50363C12.0247 3.49652 12.7583 3.65434 13.4311 3.96565C14.1039 4.27697 14.699 4.73399 15.1735 5.30363L17.4435 3.19363C16.705 2.32413 15.7736 1.63924 14.7235 1.19363C13.5773 0.716404 12.3448 0.48148 11.1035 0.50363C9.88686 0.494379 8.68045 0.725466 7.55342 1.18363C6.49495 1.61722 5.54557 2.27973 4.77342 3.12363C4.00663 3.94974 3.44184 4.9424 3.12342 6.02363H0.633423V7.87363H2.79342C2.78165 8.02674 2.78165 8.18052 2.79342 8.33363H6.35342C6.35342 8.14363 6.35342 7.98363 6.35342 7.87363H12.4935Z" fill="white"/>
<path d="M20.4435 14.6835L18.1735 12.5735C17.701 13.1468 17.1067 13.6076 16.4338 13.9224C15.7609 14.2372 15.0263 14.3981 14.2835 14.3935C13.3734 14.4094 12.4757 14.1815 11.6835 13.7335C10.9357 13.3064 10.3252 12.6751 9.92342 11.9135H15.4935V10.0635H9.37342C9.37342 9.9335 9.37342 9.7335 9.37342 9.4635V9.3335H5.77342C5.77342 9.3835 5.77342 9.4135 5.77342 9.4635C5.75955 9.66326 5.75955 9.86374 5.77342 10.0635H3.63342V11.9135H6.12342C6.44417 12.9937 7.00867 13.9859 7.77342 14.8135C8.54557 15.6574 9.49495 16.3199 10.5535 16.7535C10.9849 16.9261 11.4297 17.0632 11.8835 17.1635H16.3635C16.8294 17.0592 17.2847 16.9119 17.7235 16.7235C18.7792 16.269 19.7116 15.5697 20.4435 14.6835Z" fill="white"/>
<path d="M30.9235 0.763672H18.5835V6.18368H21.7535V3.67368H26.8535L24.7935 8.33367H28.6335L30.9235 3.07368V0.763672Z" fill="white"/>
<path d="M27.7935 9.3335L24.3335 17.1635H28.2035L31.6335 9.3335H27.7935Z" fill="white"/>
<path d="M40.3735 17.4336C41.1482 17.4372 41.9206 17.3465 42.6735 17.1636H37.9835C38.7691 17.3334 39.5698 17.4238 40.3735 17.4336Z" fill="white"/>
<path d="M37.4135 6.55368H36.1635L36.4035 3.62367H42.8335V0.763672H33.4335L32.7435 8.33367H42.7435C42.5971 8.1639 42.4401 8.00358 42.2735 7.85368C40.8561 6.86372 39.1358 6.40356 37.4135 6.55368Z" fill="white"/>
<path d="M46.0734 14.8935C46.5426 14.1191 46.7851 13.2288 46.7734 12.3235C46.8071 11.2227 46.4211 10.1502 45.6935 9.32349H35.6935L35.6334 10.4335H39.6334C40.5888 10.3575 41.5473 10.5333 42.4134 10.9435C42.6696 11.0957 42.8794 11.3149 43.0203 11.5774C43.1613 11.8399 43.228 12.1359 43.2135 12.4335C43.2251 12.7259 43.1602 13.0162 43.0251 13.2758C42.8901 13.5354 42.6896 13.7552 42.4435 13.9135C41.8096 14.2988 41.0741 14.4835 40.3335 14.4435C39.5354 14.446 38.7421 14.3211 37.9834 14.0735C37.2653 13.8551 36.5891 13.517 35.9834 13.0735L34.5835 15.8035C35.393 16.3671 36.2975 16.7803 37.2534 17.0235C37.5234 17.0935 37.7934 17.1335 38.0634 17.1835H42.6334C43.0632 17.0859 43.482 16.9452 43.8834 16.7635C44.781 16.3684 45.5426 15.7181 46.0734 14.8935Z" fill="white"/>
<path d="M54.8234 17.4336C55.4634 17.438 56.1004 17.347 56.7135 17.1636H52.9435C53.5533 17.3461 54.1869 17.4371 54.8234 17.4336Z" fill="white"/>
<path d="M55.2335 1.50362C54.2044 0.882637 53.0253 0.554443 51.8235 0.554443C50.6216 0.554443 49.4425 0.882637 48.4135 1.50362C47.3845 2.17098 46.5715 3.12288 46.0735 4.24362C45.4937 5.54545 45.2069 6.95875 45.2335 8.38362H48.8435C48.7569 7.11357 49.0308 5.8449 49.6335 4.72362C49.8677 4.35178 50.1923 4.04536 50.577 3.833C50.9617 3.62064 51.394 3.50926 51.8335 3.50926C52.2729 3.50926 52.7052 3.62064 53.0899 3.833C53.4746 4.04536 53.7993 4.35178 54.0335 4.72362C54.6309 5.82903 54.908 7.07928 54.8335 8.33362H58.4235C58.461 6.91286 58.1915 5.50073 57.6335 4.19362C57.1101 3.08392 56.2765 2.1496 55.2335 1.50362Z" fill="white"/>
<path d="M60.6334 13.7435C61.2021 12.4044 61.4717 10.9574 61.4235 9.5035V9.3335H57.8335C57.8335 9.3835 57.8335 9.4235 57.8335 9.4635C57.9265 10.7619 57.6454 12.0598 57.0234 13.2035C56.7892 13.5753 56.4646 13.8817 56.0799 14.0941C55.6952 14.3064 55.2629 14.4178 54.8234 14.4178C54.384 14.4178 53.9517 14.3064 53.567 14.0941C53.1823 13.8817 52.8577 13.5753 52.6235 13.2035C52.021 12.0677 51.7474 10.7863 51.8335 9.5035C51.8335 9.5035 51.8335 9.4235 51.8335 9.3735H48.2334C48.2334 9.4235 48.2334 9.4635 48.2334 9.5035C48.1983 10.9753 48.4885 12.4368 49.0835 13.7835C49.5854 14.8934 50.3937 15.837 51.4134 16.5035C51.888 16.8027 52.4033 17.0317 52.9435 17.1835H56.7135C57.2511 17.0335 57.7634 16.8044 58.2334 16.5035C59.2868 15.8388 60.1215 14.8789 60.6334 13.7435Z" fill="white"/>
<path d="M69.7635 17.4336C70.3967 17.436 71.0268 17.345 71.6335 17.1636H67.8735C68.4867 17.3463 69.1236 17.4372 69.7635 17.4336Z" fill="white"/>
<path d="M70.1735 1.50358C69.4098 1.01122 68.5486 0.690138 67.649 0.562436C66.7494 0.434734 65.8329 0.50344 64.9624 0.763827C64.0919 1.02421 63.2881 1.4701 62.6064 2.0708C61.9248 2.6715 61.3813 3.41276 61.0135 4.24358C60.4337 5.54541 60.1469 6.95871 60.1735 8.38358H63.7735C63.7036 7.12962 63.9804 5.88065 64.5735 4.77358C64.8077 4.40174 65.1323 4.09533 65.517 3.88296C65.9017 3.6706 66.334 3.55922 66.7735 3.55922C67.2129 3.55922 67.6452 3.6706 68.0299 3.88296C68.4146 4.09533 68.7393 4.40174 68.9735 4.77358C69.5665 5.88065 69.8433 7.12962 69.7735 8.38358H73.3635C73.3821 6.95842 73.0921 5.54611 72.5135 4.24358C72.0183 3.12097 71.2048 2.16829 70.1735 1.50358Z" fill="white"/>
<path d="M75.5135 13.7435C76.1096 12.4113 76.4 10.9625 76.3635 9.5035V9.3335H72.7735C72.7735 9.3835 72.7735 9.4235 72.7735 9.4635C72.8665 10.7619 72.5854 12.0598 71.9635 13.2035C71.7293 13.5753 71.4046 13.8817 71.0199 14.0941C70.6352 14.3064 70.2029 14.4178 69.7635 14.4178C69.324 14.4178 68.8917 14.3064 68.507 14.0941C68.1223 13.8817 67.7977 13.5753 67.5635 13.2035C66.961 12.0677 66.6874 10.7863 66.7735 9.5035V9.3335H63.1735C63.1735 9.3835 63.1735 9.4235 63.1735 9.4635C63.1329 10.9358 63.4234 12.3984 64.0235 13.7435C64.5126 14.8721 65.3229 15.8319 66.3535 16.5035C66.8254 16.8009 67.3372 17.0298 67.8735 17.1835H71.6335C72.178 17.0354 72.6972 16.8062 73.1735 16.5035C74.2077 15.8334 75.0216 14.8734 75.5135 13.7435Z" fill="white"/>
</g>
<defs>
<clipPath id="clip0_2_262">
<rect width="77" height="17" fill="white" transform="translate(0 0.5)"/>
</clipPath>
</defs>
</svg>
