<svg width="160" height="118" viewBox="0 0 160 118" fill="none" xmlns="http://www.w3.org/2000/svg">
<rect width="160" height="118" rx="25" fill="white"/>
<g clip-path="url(#clip0_2_93)">
<path d="M95.0798 38.5649C95.0798 34.1054 97.1144 30.8512 101.064 28.3201C98.7899 25.0659 95.4388 23.3785 91.0106 23.0169C86.7021 22.6553 82.0346 25.4274 80.359 25.4274C78.5638 25.4274 74.4947 23.1374 71.2633 23.1374C64.5612 23.258 57.5 28.4406 57.5 39.1675C57.5 42.3012 57.9787 45.5554 59.1755 48.9302C60.7314 53.3897 66.2367 64.2371 71.9814 63.996C74.9734 63.996 77.1277 61.8266 81.0771 61.8266C84.9069 61.8266 86.8218 63.996 90.1729 63.996C96.0372 63.996 101.064 54.1128 102.5 49.6533C94.7207 45.917 95.0798 38.8059 95.0798 38.5649ZM88.3777 18.7985C91.609 14.9416 91.25 11.3258 91.25 10C88.3777 10.2411 85.0266 12.049 83.1117 14.2184C80.9574 16.629 79.7606 19.6422 80 22.8964C83.1117 23.1374 85.984 21.5706 88.3777 18.7985Z" fill="black"/>
</g>
<path d="M60.98 97L65.14 87.9H66.089L70.249 97H69.235L65.413 88.459H65.803L61.981 97H60.98ZM62.618 94.569L62.904 93.789H68.195L68.481 94.569H62.618ZM75.0824 97.065C74.493 97.065 73.96 96.9307 73.4834 96.662C73.0067 96.3847 72.6254 95.9903 72.3394 95.479C72.062 94.959 71.9234 94.3263 71.9234 93.581C71.9234 92.8357 72.062 92.2073 72.3394 91.696C72.6167 91.176 72.9937 90.7817 73.4704 90.513C73.947 90.2443 74.4844 90.11 75.0824 90.11C75.7324 90.11 76.313 90.2573 76.8244 90.552C77.3444 90.838 77.7517 91.2453 78.0464 91.774C78.341 92.294 78.4884 92.8963 78.4884 93.581C78.4884 94.2743 78.341 94.881 78.0464 95.401C77.7517 95.921 77.3444 96.3283 76.8244 96.623C76.313 96.9177 75.7324 97.065 75.0824 97.065ZM71.5594 99.522V90.175H72.4434V92.229L72.3524 93.594L72.4824 94.972V99.522H71.5594ZM75.0174 96.246C75.5027 96.246 75.936 96.1377 76.3174 95.921C76.6987 95.6957 77.002 95.3837 77.2274 94.985C77.4527 94.5777 77.5654 94.1097 77.5654 93.581C77.5654 93.0523 77.4527 92.5887 77.2274 92.19C77.002 91.7913 76.6987 91.4793 76.3174 91.254C75.936 91.0287 75.5027 90.916 75.0174 90.916C74.532 90.916 74.0944 91.0287 73.7044 91.254C73.323 91.4793 73.0197 91.7913 72.7944 92.19C72.5777 92.5887 72.4694 93.0523 72.4694 93.581C72.4694 94.1097 72.5777 94.5777 72.7944 94.985C73.0197 95.3837 73.323 95.6957 73.7044 95.921C74.0944 96.1377 74.532 96.246 75.0174 96.246ZM83.8929 97.065C83.3036 97.065 82.7706 96.9307 82.2939 96.662C81.8172 96.3847 81.4359 95.9903 81.1499 95.479C80.8726 94.959 80.7339 94.3263 80.7339 93.581C80.7339 92.8357 80.8726 92.2073 81.1499 91.696C81.4272 91.176 81.8042 90.7817 82.2809 90.513C82.7576 90.2443 83.2949 90.11 83.8929 90.11C84.5429 90.11 85.1236 90.2573 85.6349 90.552C86.1549 90.838 86.5622 91.2453 86.8569 91.774C87.1516 92.294 87.2989 92.8963 87.2989 93.581C87.2989 94.2743 87.1516 94.881 86.8569 95.401C86.5622 95.921 86.1549 96.3283 85.6349 96.623C85.1236 96.9177 84.5429 97.065 83.8929 97.065ZM80.3699 99.522V90.175H81.2539V92.229L81.1629 93.594L81.2929 94.972V99.522H80.3699ZM83.8279 96.246C84.3132 96.246 84.7466 96.1377 85.1279 95.921C85.5092 95.6957 85.8126 95.3837 86.0379 94.985C86.2632 94.5777 86.3759 94.1097 86.3759 93.581C86.3759 93.0523 86.2632 92.5887 86.0379 92.19C85.8126 91.7913 85.5092 91.4793 85.1279 91.254C84.7466 91.0287 84.3132 90.916 83.8279 90.916C83.3426 90.916 82.9049 91.0287 82.5149 91.254C82.1336 91.4793 81.8302 91.7913 81.6049 92.19C81.3882 92.5887 81.2799 93.0523 81.2799 93.581C81.2799 94.1097 81.3882 94.5777 81.6049 94.985C81.8302 95.3837 82.1336 95.6957 82.5149 95.921C82.9049 96.1377 83.3426 96.246 83.8279 96.246ZM89.1805 97V87.354H90.1035V97H89.1805ZM95.5707 97.065C94.86 97.065 94.236 96.9177 93.6987 96.623C93.1613 96.3197 92.741 95.908 92.4377 95.388C92.1343 94.8593 91.9827 94.257 91.9827 93.581C91.9827 92.905 92.1257 92.307 92.4117 91.787C92.7063 91.267 93.105 90.8597 93.6077 90.565C94.119 90.2617 94.691 90.11 95.3237 90.11C95.965 90.11 96.5327 90.2573 97.0267 90.552C97.5293 90.838 97.9237 91.2453 98.2097 91.774C98.4957 92.294 98.6387 92.8963 98.6387 93.581C98.6387 93.6243 98.6343 93.672 98.6257 93.724C98.6257 93.7673 98.6257 93.815 98.6257 93.867H92.6847V93.178H98.1317L97.7677 93.451C97.7677 92.957 97.6593 92.5193 97.4427 92.138C97.2347 91.748 96.9487 91.4447 96.5847 91.228C96.2207 91.0113 95.8003 90.903 95.3237 90.903C94.8557 90.903 94.4353 91.0113 94.0627 91.228C93.69 91.4447 93.3997 91.748 93.1917 92.138C92.9837 92.528 92.8797 92.9743 92.8797 93.477V93.62C92.8797 94.14 92.9923 94.5993 93.2177 94.998C93.4517 95.388 93.7723 95.6957 94.1797 95.921C94.5957 96.1377 95.068 96.246 95.5967 96.246C96.0127 96.246 96.3983 96.1723 96.7537 96.025C97.1177 95.8777 97.4297 95.6523 97.6897 95.349L98.2097 95.947C97.9063 96.311 97.525 96.5883 97.0657 96.779C96.615 96.9697 96.1167 97.065 95.5707 97.065Z" fill="black"/>
<defs>
<clipPath id="clip0_2_93">
<rect width="45" height="54" fill="white" transform="translate(57.5 10)"/>
</clipPath>
</defs>
</svg>
