<svg width="160" height="118" viewBox="0 0 160 118" fill="none" xmlns="http://www.w3.org/2000/svg">
<rect width="160" height="118" rx="25" fill="white"/>
<g clip-path="url(#clip0_2_98)">
<path fill-rule="evenodd" clip-rule="evenodd" d="M56.9469 10.8281C56.3456 11.4805 56 12.4846 56 13.7895V60.2017C56 61.5065 56.3456 62.5106 56.9694 63.1404L57.1323 63.2794L82.8927 37.2736V36.6892L57.1099 10.6891L56.9469 10.8281Z" fill="url(#paint0_linear_2_98)"/>
<path fill-rule="evenodd" clip-rule="evenodd" d="M91.4626 45.9761L82.8702 37.299V36.692L91.4654 28.0149L91.6509 28.1312L101.817 33.9632C104.728 35.6198 104.728 38.3486 101.817 40.0278L91.6509 45.8598C91.6481 45.8598 91.4626 45.9761 91.4626 45.9761Z" fill="url(#paint1_linear_2_98)"/>
<path fill-rule="evenodd" clip-rule="evenodd" d="M91.6481 45.8599L82.8702 36.9956L56.9469 63.1659C57.8938 64.1928 59.487 64.3091 61.2684 63.3049L91.6481 45.8599Z" fill="url(#paint2_linear_2_98)"/>
<path fill-rule="evenodd" clip-rule="evenodd" d="M91.6481 28.134L61.2684 10.7117C59.4898 9.68488 57.8938 9.82387 56.9469 10.8507L82.8674 36.9955L91.6481 28.134Z" fill="url(#paint3_linear_2_98)"/>
<path opacity="0.2" fill-rule="evenodd" clip-rule="evenodd" d="M91.4626 45.6726L61.2909 62.9786C59.605 63.9572 58.1017 63.8892 57.1323 63.0013L56.9694 63.1658L57.1323 63.3048C58.1017 64.1898 59.605 64.2607 61.2909 63.2821L91.6705 45.8598L91.4626 45.6726Z" fill="black"/>
<path opacity="0.12" fill-rule="evenodd" clip-rule="evenodd" d="M101.814 39.7244L91.4402 45.6727L91.6256 45.8599L101.791 40.0279C103.247 39.1883 103.963 38.0934 103.963 36.9956C103.871 37.9998 103.132 38.9557 101.814 39.7244Z" fill="black"/>
<path opacity="0.25" fill-rule="evenodd" clip-rule="evenodd" d="M61.2684 11.0153L101.814 34.2696C103.132 35.0156 103.871 35.9942 103.986 36.9984C103.986 35.9034 103.269 34.8057 101.814 33.9661L61.2684 10.7117C58.3574 9.03249 56 10.4309 56 13.7894V14.093C56 10.7344 58.3574 9.3587 61.2684 11.0153Z" fill="white"/>
</g>
<path d="M44.3075 98.084C43.5608 98.084 42.8701 97.9627 42.2355 97.72C41.6101 97.468 41.0641 97.118 40.5975 96.67C40.1401 96.222 39.7808 95.6947 39.5195 95.088C39.2675 94.4813 39.1415 93.8187 39.1415 93.1C39.1415 92.3813 39.2675 91.7187 39.5195 91.112C39.7808 90.5053 40.1448 89.978 40.6115 89.53C41.0781 89.082 41.6241 88.7367 42.2495 88.494C42.8841 88.242 43.5748 88.116 44.3215 88.116C45.0681 88.116 45.7495 88.2327 46.3655 88.466C46.9908 88.6993 47.5228 89.054 47.9615 89.53L47.3175 90.188C46.9068 89.7773 46.4541 89.4833 45.9595 89.306C45.4648 89.1287 44.9328 89.04 44.3635 89.04C43.7568 89.04 43.1968 89.1427 42.6835 89.348C42.1795 89.544 41.7361 89.8287 41.3535 90.202C40.9801 90.566 40.6861 90.9953 40.4715 91.49C40.2661 91.9753 40.1635 92.512 40.1635 93.1C40.1635 93.6787 40.2661 94.2153 40.4715 94.71C40.6861 95.2047 40.9801 95.6387 41.3535 96.012C41.7361 96.376 42.1795 96.6607 42.6835 96.866C43.1968 97.062 43.7521 97.16 44.3495 97.16C44.9095 97.16 45.4368 97.076 45.9315 96.908C46.4355 96.74 46.8975 96.4553 47.3175 96.054L47.9055 96.838C47.4388 97.2487 46.8928 97.5613 46.2675 97.776C45.6421 97.9813 44.9888 98.084 44.3075 98.084ZM46.9115 96.712V93.1H47.9055V96.838L46.9115 96.712ZM53.6236 98.07C52.9143 98.07 52.2749 97.9113 51.7056 97.594C51.1456 97.2673 50.7023 96.824 50.3756 96.264C50.0489 95.6947 49.8856 95.046 49.8856 94.318C49.8856 93.5807 50.0489 92.932 50.3756 92.372C50.7023 91.812 51.1456 91.3733 51.7056 91.056C52.2656 90.7387 52.9049 90.58 53.6236 90.58C54.3516 90.58 54.9956 90.7387 55.5556 91.056C56.1249 91.3733 56.5683 91.812 56.8856 92.372C57.2123 92.932 57.3756 93.5807 57.3756 94.318C57.3756 95.046 57.2123 95.6947 56.8856 96.264C56.5683 96.824 56.1249 97.2673 55.5556 97.594C54.9863 97.9113 54.3423 98.07 53.6236 98.07ZM53.6236 97.188C54.1556 97.188 54.6269 97.0713 55.0376 96.838C55.4483 96.5953 55.7703 96.2593 56.0036 95.83C56.2463 95.3913 56.3676 94.8873 56.3676 94.318C56.3676 93.7393 56.2463 93.2353 56.0036 92.806C55.7703 92.3767 55.4483 92.0453 55.0376 91.812C54.6269 91.5693 54.1603 91.448 53.6376 91.448C53.1149 91.448 52.6483 91.5693 52.2376 91.812C51.8269 92.0453 51.5003 92.3767 51.2576 92.806C51.0149 93.2353 50.8936 93.7393 50.8936 94.318C50.8936 94.8873 51.0149 95.3913 51.2576 95.83C51.5003 96.2593 51.8269 96.5953 52.2376 96.838C52.6483 97.0713 53.1103 97.188 53.6236 97.188ZM62.4009 98.07C61.6916 98.07 61.0523 97.9113 60.4829 97.594C59.9229 97.2673 59.4796 96.824 59.1529 96.264C58.8263 95.6947 58.6629 95.046 58.6629 94.318C58.6629 93.5807 58.8263 92.932 59.1529 92.372C59.4796 91.812 59.9229 91.3733 60.4829 91.056C61.0429 90.7387 61.6823 90.58 62.4009 90.58C63.1289 90.58 63.7729 90.7387 64.3329 91.056C64.9023 91.3733 65.3456 91.812 65.6629 92.372C65.9896 92.932 66.1529 93.5807 66.1529 94.318C66.1529 95.046 65.9896 95.6947 65.6629 96.264C65.3456 96.824 64.9023 97.2673 64.3329 97.594C63.7636 97.9113 63.1196 98.07 62.4009 98.07ZM62.4009 97.188C62.9329 97.188 63.4043 97.0713 63.8149 96.838C64.2256 96.5953 64.5476 96.2593 64.7809 95.83C65.0236 95.3913 65.1449 94.8873 65.1449 94.318C65.1449 93.7393 65.0236 93.2353 64.7809 92.806C64.5476 92.3767 64.2256 92.0453 63.8149 91.812C63.4043 91.5693 62.9376 91.448 62.4149 91.448C61.8923 91.448 61.4256 91.5693 61.0149 91.812C60.6043 92.0453 60.2776 92.3767 60.0349 92.806C59.7923 93.2353 59.6709 93.7393 59.6709 94.318C59.6709 94.8873 59.7923 95.3913 60.0349 95.83C60.2776 96.2593 60.6043 96.5953 61.0149 96.838C61.4256 97.0713 61.8876 97.188 62.4009 97.188ZM71.3183 100.786C70.6463 100.786 70.0023 100.688 69.3863 100.492C68.7703 100.296 68.271 100.016 67.8883 99.652L68.3923 98.896C68.7376 99.204 69.1623 99.4467 69.6663 99.624C70.1796 99.8107 70.721 99.904 71.2903 99.904C72.2236 99.904 72.9096 99.6847 73.3483 99.246C73.787 98.8167 74.0063 98.1447 74.0063 97.23V95.396L74.1463 94.136L74.0483 92.876V90.65H75.0003V97.104C75.0003 98.3733 74.6876 99.302 74.0623 99.89C73.4463 100.487 72.5316 100.786 71.3183 100.786ZM71.1363 97.72C70.4363 97.72 69.8063 97.5707 69.2463 97.272C68.6863 96.964 68.243 96.5393 67.9163 95.998C67.599 95.4567 67.4403 94.836 67.4403 94.136C67.4403 93.436 67.599 92.82 67.9163 92.288C68.243 91.7467 68.6863 91.3267 69.2463 91.028C69.8063 90.7293 70.4363 90.58 71.1363 90.58C71.7896 90.58 72.3776 90.7153 72.9003 90.986C73.423 91.2567 73.8383 91.658 74.1463 92.19C74.4543 92.722 74.6083 93.3707 74.6083 94.136C74.6083 94.9013 74.4543 95.55 74.1463 96.082C73.8383 96.614 73.423 97.02 72.9003 97.3C72.3776 97.58 71.7896 97.72 71.1363 97.72ZM71.2343 96.838C71.7756 96.838 72.2563 96.726 72.6763 96.502C73.0963 96.2687 73.4276 95.9513 73.6703 95.55C73.913 95.1393 74.0343 94.668 74.0343 94.136C74.0343 93.604 73.913 93.1373 73.6703 92.736C73.4276 92.3347 73.0963 92.022 72.6763 91.798C72.2563 91.5647 71.7756 91.448 71.2343 91.448C70.7023 91.448 70.2216 91.5647 69.7923 91.798C69.3723 92.022 69.041 92.3347 68.7983 92.736C68.565 93.1373 68.4483 93.604 68.4483 94.136C68.4483 94.668 68.565 95.1393 68.7983 95.55C69.041 95.9513 69.3723 96.2687 69.7923 96.502C70.2216 96.726 70.7023 96.838 71.2343 96.838ZM77.7663 98V87.612H78.7603V98H77.7663ZM84.648 98.07C83.8827 98.07 83.2107 97.9113 82.632 97.594C82.0534 97.2673 81.6007 96.824 81.274 96.264C80.9474 95.6947 80.784 95.046 80.784 94.318C80.784 93.59 80.938 92.946 81.246 92.386C81.5634 91.826 81.9927 91.3873 82.534 91.07C83.0847 90.7433 83.7007 90.58 84.382 90.58C85.0727 90.58 85.684 90.7387 86.216 91.056C86.7574 91.364 87.182 91.8027 87.49 92.372C87.798 92.932 87.952 93.5807 87.952 94.318C87.952 94.3647 87.9474 94.416 87.938 94.472C87.938 94.5187 87.938 94.57 87.938 94.626H81.54V93.884H87.406L87.014 94.178C87.014 93.646 86.8974 93.1747 86.664 92.764C86.44 92.344 86.132 92.0173 85.74 91.784C85.348 91.5507 84.8954 91.434 84.382 91.434C83.878 91.434 83.4254 91.5507 83.024 91.784C82.6227 92.0173 82.31 92.344 82.086 92.764C81.862 93.184 81.75 93.6647 81.75 94.206V94.36C81.75 94.92 81.8714 95.4147 82.114 95.844C82.366 96.264 82.7114 96.5953 83.15 96.838C83.598 97.0713 84.1067 97.188 84.676 97.188C85.124 97.188 85.5394 97.1087 85.922 96.95C86.314 96.7913 86.65 96.5487 86.93 96.222L87.49 96.866C87.1634 97.258 86.7527 97.5567 86.258 97.762C85.7727 97.9673 85.236 98.07 84.648 98.07ZM93.8493 98V88.2H97.5173C98.348 88.2 99.062 88.3353 99.6593 88.606C100.257 88.8673 100.714 89.25 101.031 89.754C101.358 90.2487 101.521 90.8507 101.521 91.56C101.521 92.2507 101.358 92.848 101.031 93.352C100.714 93.8467 100.257 94.2293 99.6593 94.5C99.062 94.7707 98.348 94.906 97.5173 94.906H94.4233L94.8853 94.416V98H93.8493ZM94.8853 94.5L94.4233 93.996H97.4893C98.4693 93.996 99.2113 93.786 99.7153 93.366C100.229 92.9367 100.485 92.3347 100.485 91.56C100.485 90.776 100.229 90.1693 99.7153 89.74C99.2113 89.3107 98.4693 89.096 97.4893 89.096H94.4233L94.8853 88.606V94.5ZM103.688 98V87.612H104.682V98H103.688ZM112.054 98V96.376L112.012 96.11V93.394C112.012 92.7687 111.835 92.288 111.48 91.952C111.135 91.616 110.617 91.448 109.926 91.448C109.45 91.448 108.997 91.5273 108.568 91.686C108.139 91.8447 107.775 92.0547 107.476 92.316L107.028 91.574C107.401 91.2567 107.849 91.014 108.372 90.846C108.895 90.6687 109.445 90.58 110.024 90.58C110.976 90.58 111.709 90.818 112.222 91.294C112.745 91.7607 113.006 92.4747 113.006 93.436V98H112.054ZM109.52 98.07C108.969 98.07 108.489 97.9813 108.078 97.804C107.677 97.6173 107.369 97.3653 107.154 97.048C106.939 96.7213 106.832 96.348 106.832 95.928C106.832 95.5453 106.921 95.2 107.098 94.892C107.285 94.5747 107.583 94.3227 107.994 94.136C108.414 93.94 108.974 93.842 109.674 93.842H112.208V94.584H109.702C108.993 94.584 108.498 94.71 108.218 94.962C107.947 95.214 107.812 95.5267 107.812 95.9C107.812 96.32 107.975 96.656 108.302 96.908C108.629 97.16 109.086 97.286 109.674 97.286C110.234 97.286 110.715 97.16 111.116 96.908C111.527 96.6467 111.825 96.2733 112.012 95.788L112.236 96.474C112.049 96.9593 111.723 97.3467 111.256 97.636C110.799 97.9253 110.22 98.07 109.52 98.07ZM115.625 100.786C115.28 100.786 114.948 100.73 114.631 100.618C114.323 100.506 114.057 100.338 113.833 100.114L114.295 99.372C114.482 99.5493 114.682 99.6847 114.897 99.778C115.121 99.8807 115.368 99.932 115.639 99.932C115.966 99.932 116.246 99.8387 116.479 99.652C116.722 99.4747 116.95 99.1573 117.165 98.7L117.641 97.622L117.753 97.468L120.777 90.65H121.757L118.075 98.882C117.87 99.358 117.641 99.736 117.389 100.016C117.146 100.296 116.88 100.492 116.591 100.604C116.302 100.725 115.98 100.786 115.625 100.786ZM117.585 98.21L114.197 90.65H115.233L118.229 97.398L117.585 98.21Z" fill="black"/>
<defs>
<linearGradient id="paint0_linear_2_98" x1="80.5645" y1="13.3051" x2="39.2911" y2="24.1935" gradientUnits="userSpaceOnUse">
<stop stop-color="#00A0FF"/>
<stop offset="0.007" stop-color="#00A1FF"/>
<stop offset="0.26" stop-color="#00BEFF"/>
<stop offset="0.512" stop-color="#00D2FF"/>
<stop offset="0.76" stop-color="#00DFFF"/>
<stop offset="1" stop-color="#00E3FF"/>
</linearGradient>
<linearGradient id="paint1_linear_2_98" x1="105.604" y1="36.9881" x2="55.2923" y2="36.9881" gradientUnits="userSpaceOnUse">
<stop stop-color="#FFE000"/>
<stop offset="0.409" stop-color="#FFBD00"/>
<stop offset="0.775" stop-color="#FFA500"/>
<stop offset="1" stop-color="#FF9C00"/>
</linearGradient>
<linearGradient id="paint2_linear_2_98" x1="86.8791" y1="41.8095" x2="53.2541" y2="97.8049" gradientUnits="userSpaceOnUse">
<stop stop-color="#FF3A44"/>
<stop offset="1" stop-color="#C31162"/>
</linearGradient>
<linearGradient id="paint3_linear_2_98" x1="50.4154" y1="-4.6289" x2="65.4196" y2="20.3609" gradientUnits="userSpaceOnUse">
<stop stop-color="#32A071"/>
<stop offset="0.069" stop-color="#2DA771"/>
<stop offset="0.476" stop-color="#15CF74"/>
<stop offset="0.801" stop-color="#06E775"/>
<stop offset="1" stop-color="#00F076"/>
</linearGradient>
<clipPath id="clip0_2_98">
<rect width="48" height="54" fill="white" transform="translate(56 10)"/>
</clipPath>
</defs>
</svg>
