<svg width="50" height="49" viewBox="0 0 50 49" fill="none" xmlns="http://www.w3.org/2000/svg">
<g clip-path="url(#clip0_2_124)">
<path d="M25 0.03125C11.6211 0.03125 0.78125 10.8711 0.78125 24.25C0.78125 37.6289 11.6211 48.4688 25 48.4688C38.3789 48.4688 49.2188 37.6289 49.2188 24.25C49.2188 10.8711 38.3789 0.03125 25 0.03125ZM14.0625 19.5625C14.0625 17.9023 15.4297 16.4375 17.1875 16.4375C18.8477 16.4375 20.3125 17.9023 20.3125 19.5625C20.3125 21.3203 18.8477 22.6875 17.1875 22.6875C15.4297 22.6875 14.0625 21.3203 14.0625 19.5625ZM25 39.875C21.4844 39.875 18.75 37.1406 18.75 33.625C18.75 30.207 21.4844 27.375 25 27.375C28.418 27.375 31.25 30.207 31.25 33.625C31.25 37.1406 28.418 39.875 25 39.875ZM32.8125 22.6875C31.0547 22.6875 29.6875 21.3203 29.6875 19.5625C29.6875 17.9023 31.0547 16.4375 32.8125 16.4375C34.4727 16.4375 35.9375 17.9023 35.9375 19.5625C35.9375 21.3203 34.4727 22.6875 32.8125 22.6875Z" fill="white"/>
</g>
<defs>
<clipPath id="clip0_2_124">
<rect width="49" height="49" fill="white" transform="translate(0.5)"/>
</clipPath>
</defs>
</svg>
