<svg width="50" height="49" viewBox="0 0 50 49" fill="none" xmlns="http://www.w3.org/2000/svg">
<g clip-path="url(#clip0_2_131)">
<path d="M25 0.03125C11.6211 0.03125 0.78125 10.9688 0.78125 24.25C0.78125 37.6289 11.6211 48.4688 25 48.4688C38.2812 48.4688 49.2188 37.6289 49.2188 24.25C49.2188 10.9688 38.2812 0.03125 25 0.03125ZM33.0078 34.9922C32.6172 35.3828 32.2266 35.7734 31.8359 36.0664C31.543 36.3594 31.3477 36.75 31.25 37.1406C31.1523 37.7266 31.0547 38.2148 30.8594 38.8008L29.1016 43.3906C27.7344 43.6836 26.3672 43.7812 25 43.7812V41.1445C25.0977 39.875 24.2188 37.6289 22.7539 36.1641C22.168 35.5781 21.875 34.7969 21.875 33.918V30.793C21.875 29.7188 21.1914 28.6445 20.2148 28.0586C18.8477 27.2773 16.7969 26.2031 15.4297 25.5195C14.3555 24.9336 13.2812 24.25 12.4023 23.3711H12.3047C11.7188 22.8828 10.9375 21.9062 10.5469 21.3203C9.57031 19.9531 8.10547 17.8047 7.12891 16.3398C9.17969 11.8477 12.6953 8.33203 17.1875 6.37891L19.5312 7.55078C20.6055 8.03906 21.875 7.35547 21.875 6.18359V5.01172C22.5586 4.91406 23.4375 4.81641 24.2188 4.81641L26.9531 7.55078C27.5391 8.13672 27.5391 9.21094 26.9531 9.79688L26.5625 10.1875L25.4883 11.2617C25.1953 11.5547 25.1953 12.043 25.4883 12.3359L25.9766 12.8242C26.2695 13.1172 26.2695 13.6055 25.9766 13.8984L25.1953 14.6797C25.0977 14.7773 24.8047 14.875 24.6094 14.875H23.7305C23.5352 14.875 23.3398 14.9727 23.2422 15.168L22.2656 16.0469C22.0703 16.2422 21.9727 16.4375 21.9727 16.6328C21.9727 16.7305 22.0703 16.9258 22.0703 17.0234L23.6328 20.0508C23.8281 20.5391 23.5352 21.125 22.9492 21.125H22.3633C22.168 21.125 21.9727 21.125 21.875 21.0273L20.8984 20.1484C20.7031 19.9531 20.2148 19.8555 19.9219 19.8555C19.7266 19.8555 19.5312 19.8555 19.4336 19.8555L16.4062 20.9297C15.918 21.0273 15.625 21.5156 15.625 22.0039C15.625 22.4922 15.8203 22.8828 16.2109 23.0781L17.2852 23.5664C18.2617 24.0547 19.2383 24.25 20.3125 24.25C21.2891 24.25 22.4609 26.9844 23.4375 27.375H29.8828C30.7617 27.375 31.543 27.7656 32.1289 28.3516L33.4961 29.7188C33.9844 30.1094 34.375 31.0859 34.375 31.7695C34.375 32.8438 33.6914 34.3086 33.0078 34.9922ZM41.5039 26.1055C40.918 25.9102 40.4297 25.6172 40.0391 25.1289L38.2812 22.4922C38.0859 22.1016 37.8906 21.6133 37.8906 21.125C37.8906 20.7344 38.0859 20.2461 38.2812 19.8555L40.2344 17.0234C40.4297 16.6328 40.7227 16.4375 41.1133 16.2422L42.3828 15.5586C43.75 18.1953 44.5312 21.125 44.5312 24.25C44.5312 25.1289 44.4336 26.0078 44.3359 26.7891L41.5039 26.1055Z" fill="white"/>
</g>
<defs>
<clipPath id="clip0_2_131">
<rect width="49" height="49" fill="white" transform="translate(0.5)"/>
</clipPath>
</defs>
</svg>
