<svg width="52" height="51" viewBox="0 0 52 51" fill="none" xmlns="http://www.w3.org/2000/svg">
<g clip-path="url(#clip0_2_117)">
<path d="M51 0.25C45.9219 0.640625 10.375 4.05859 7.93359 28.375C7.54297 31.0117 7.44531 33.6484 7.34766 36.1875L24.7305 18.8047C25.4141 18.1211 26.3906 18.1211 26.9766 18.8047C27.5625 19.3906 27.5625 20.3672 26.9766 20.9531L1.68359 46.3438C0.70703 47.2227 0.70703 48.6875 1.68359 49.5664C2.5625 50.543 4.02734 50.543 5.00391 49.5664L10.5703 44C14.6719 44 18.7734 43.8047 22.875 43.3164C28.0508 42.8281 32.3477 40.7773 35.7656 37.75H25.9023L40.2578 33.0625C41.332 31.5977 42.3086 30.0352 43.1875 28.375H35.2773L45.7266 23.1992C49.8281 13.2383 50.8047 2.88672 51 0.25Z" fill="white"/>
</g>
<defs>
<clipPath id="clip0_2_117">
<rect width="51" height="51" fill="white" transform="translate(0.5)"/>
</clipPath>
</defs>
</svg>
