<svg width="56" height="45" viewBox="0 0 56 45" fill="none" xmlns="http://www.w3.org/2000/svg">
<g clip-path="url(#clip0_2_136)">
<path d="M36.9103 17.8687L29.3812 25.3978C28.9303 25.278 28.4664 25.2143 27.9999 25.2083C26.5633 25.2083 25.1856 25.7789 24.1698 26.7948C23.1539 27.8106 22.5833 29.1883 22.5833 30.6249C22.5893 31.0914 22.653 31.5553 22.7728 32.0062L20.6603 34.1187C20.4065 34.3704 20.205 34.67 20.0675 35C19.93 35.3301 19.8592 35.6841 19.8592 36.0416C19.8592 36.3991 19.93 36.7531 20.0675 37.0831C20.205 37.4132 20.4065 37.7127 20.6603 37.9645C20.9121 38.2183 21.2117 38.4198 21.5417 38.5573C21.8717 38.6948 22.2257 38.7656 22.5833 38.7656C22.9408 38.7656 23.2948 38.6948 23.6248 38.5573C23.9548 38.4198 24.2544 38.2183 24.5062 37.9645L26.6187 35.852C27.0695 35.9719 27.5334 36.0355 27.9999 36.0416C29.4365 36.0416 30.8143 35.4709 31.8301 34.4551C32.8459 33.4393 33.4166 32.0615 33.4166 30.6249C33.4106 30.1584 33.3469 29.6945 33.227 29.2437L40.7562 21.7145C41.2662 21.2045 41.5527 20.5128 41.5527 19.7916C41.5527 19.0704 41.2662 18.3787 40.7562 17.8687C40.2462 17.3587 39.5545 17.0722 38.8333 17.0722C38.112 17.0722 37.4203 17.3587 36.9103 17.8687ZM27.9999 0.833252C24.4433 0.833252 20.9215 1.53378 17.6356 2.89485C14.3497 4.25591 11.364 6.25086 8.84911 8.76578C3.77 13.8449 0.916587 20.7336 0.916587 27.9166C0.903249 33.2806 2.4975 38.5256 5.49367 42.9749C5.89592 43.5711 6.51852 43.9831 7.22451 44.1202C7.93051 44.2573 8.66207 44.1084 9.25825 43.7062C9.85444 43.3039 10.2664 42.6813 10.4036 41.9753C10.5407 41.2693 10.3918 40.5378 9.9895 39.9416C7.80799 36.6795 6.55339 32.8862 6.35967 28.9667C6.16595 25.0471 7.04039 21.1486 8.88961 17.6873C10.7388 14.226 13.4934 11.3319 16.8592 9.31409C20.225 7.29626 24.0756 6.23044 27.9999 6.23044C31.9242 6.23044 35.7749 7.29626 39.1406 9.31409C42.5064 11.3319 45.261 14.226 47.1102 17.6873C48.9594 21.1486 49.8339 25.0471 49.6402 28.9667C49.4465 32.8862 48.1919 36.6795 46.0103 39.9416C45.8107 40.2366 45.6713 40.5682 45.6 40.9172C45.5287 41.2662 45.527 41.6259 45.5949 41.9756C45.6628 42.3253 45.7991 42.6581 45.9958 42.9551C46.1926 43.2521 46.446 43.5073 46.7416 43.7062C47.1899 44.0075 47.7181 44.1678 48.2583 44.1666C48.7019 44.1673 49.1389 44.0589 49.5308 43.8511C49.9228 43.6434 50.2577 43.3425 50.5062 42.9749C53.5023 38.5256 55.0966 33.2806 55.0833 27.9166C55.0833 20.7336 52.2298 13.8449 47.1507 8.76578C42.0716 3.68667 35.1829 0.833252 27.9999 0.833252Z" fill="white"/>
</g>
<defs>
<clipPath id="clip0_2_136">
<rect width="55" height="45" fill="white" transform="translate(0.5)"/>
</clipPath>
</defs>
</svg>
