<svg width="160" height="118" viewBox="0 0 160 118" fill="none" xmlns="http://www.w3.org/2000/svg">
<rect width="160" height="118" rx="25" fill="white"/>
<g clip-path="url(#clip0_2_88)">
<path d="M53 17.4732V35.7946H75.058V14.4598L53 17.4732ZM53 56.6473L75.058 59.6607V38.567H53V56.6473ZM77.4688 60.0223L107 64V38.567H77.4688V60.0223ZM77.4688 14.0982V35.7946H107V10L77.4688 14.0982Z" fill="#00ADEF"/>
</g>
<path d="M53.1676 97L50.0996 87.9H51.0876L53.9606 96.467H53.4666L56.4306 87.9H57.3146L60.2396 96.467H59.7716L62.6706 87.9H63.5936L60.5256 97H59.5116L56.7166 88.875H56.9766L54.1686 97H53.1676ZM65.1243 97V90.175H66.0473V97H65.1243ZM65.5923 88.667C65.4016 88.667 65.2413 88.602 65.1113 88.472C64.9813 88.342 64.9163 88.186 64.9163 88.004C64.9163 87.822 64.9813 87.6703 65.1113 87.549C65.2413 87.419 65.4016 87.354 65.5923 87.354C65.783 87.354 65.9433 87.4147 66.0733 87.536C66.2033 87.6573 66.2683 87.809 66.2683 87.991C66.2683 88.1817 66.2033 88.342 66.0733 88.472C65.952 88.602 65.7916 88.667 65.5923 88.667ZM72.0995 90.11C72.6542 90.11 73.1395 90.2183 73.5555 90.435C73.9802 90.643 74.3095 90.9637 74.5435 91.397C74.7862 91.8303 74.9075 92.3763 74.9075 93.035V97H73.9845V93.126C73.9845 92.4067 73.8025 91.865 73.4385 91.501C73.0832 91.1283 72.5805 90.942 71.9305 90.942C71.4452 90.942 71.0205 91.0417 70.6565 91.241C70.3012 91.4317 70.0238 91.7133 69.8245 92.086C69.6338 92.45 69.5385 92.892 69.5385 93.412V97H68.6155V90.175H69.4995V92.047L69.3565 91.696C69.5732 91.202 69.9198 90.8163 70.3965 90.539C70.8732 90.253 71.4408 90.11 72.0995 90.11ZM80.1177 97.065C79.4677 97.065 78.8827 96.9177 78.3627 96.623C77.8513 96.3283 77.4483 95.921 77.1537 95.401C76.859 94.8723 76.7117 94.2657 76.7117 93.581C76.7117 92.8877 76.859 92.281 77.1537 91.761C77.4483 91.241 77.8513 90.838 78.3627 90.552C78.8827 90.2573 79.4677 90.11 80.1177 90.11C80.7157 90.11 81.2487 90.2443 81.7167 90.513C82.1933 90.7817 82.5703 91.176 82.8477 91.696C83.1337 92.2073 83.2767 92.8357 83.2767 93.581C83.2767 94.3177 83.138 94.946 82.8607 95.466C82.5833 95.986 82.2063 96.3847 81.7297 96.662C81.2617 96.9307 80.7243 97.065 80.1177 97.065ZM80.1827 96.246C80.668 96.246 81.1013 96.1377 81.4827 95.921C81.8727 95.6957 82.176 95.3837 82.3927 94.985C82.618 94.5777 82.7307 94.1097 82.7307 93.581C82.7307 93.0437 82.618 92.5757 82.3927 92.177C82.176 91.7783 81.8727 91.4707 81.4827 91.254C81.1013 91.0287 80.668 90.916 80.1827 90.916C79.706 90.916 79.277 91.0287 78.8957 91.254C78.5143 91.4707 78.211 91.7783 77.9857 92.177C77.7603 92.5757 77.6477 93.0437 77.6477 93.581C77.6477 94.1097 77.7603 94.5777 77.9857 94.985C78.211 95.3837 78.5143 95.6957 78.8957 95.921C79.277 96.1377 79.706 96.246 80.1827 96.246ZM82.7567 97V94.946L82.8477 93.568L82.7177 92.19V87.354H83.6407V97H82.7567ZM88.9932 97.065C88.3346 97.065 87.7409 96.9177 87.2122 96.623C86.6922 96.3197 86.2806 95.908 85.9772 95.388C85.6739 94.8593 85.5222 94.257 85.5222 93.581C85.5222 92.8963 85.6739 92.294 85.9772 91.774C86.2806 91.254 86.6922 90.8467 87.2122 90.552C87.7322 90.2573 88.3259 90.11 88.9932 90.11C89.6692 90.11 90.2672 90.2573 90.7872 90.552C91.3159 90.8467 91.7276 91.254 92.0222 91.774C92.3256 92.294 92.4772 92.8963 92.4772 93.581C92.4772 94.257 92.3256 94.8593 92.0222 95.388C91.7276 95.908 91.3159 96.3197 90.7872 96.623C90.2586 96.9177 89.6606 97.065 88.9932 97.065ZM88.9932 96.246C89.4872 96.246 89.9249 96.1377 90.3062 95.921C90.6876 95.6957 90.9866 95.3837 91.2032 94.985C91.4286 94.5777 91.5412 94.1097 91.5412 93.581C91.5412 93.0437 91.4286 92.5757 91.2032 92.177C90.9866 91.7783 90.6876 91.4707 90.3062 91.254C89.9249 91.0287 89.4916 90.916 89.0062 90.916C88.5209 90.916 88.0876 91.0287 87.7062 91.254C87.3249 91.4707 87.0216 91.7783 86.7962 92.177C86.5709 92.5757 86.4582 93.0437 86.4582 93.581C86.4582 94.1097 86.5709 94.5777 86.7962 94.985C87.0216 95.3837 87.3249 95.6957 87.7062 95.921C88.0876 96.1377 88.5166 96.246 88.9932 96.246ZM95.5622 97L92.9882 90.175H93.8722L96.2122 96.506H95.8092L98.2142 90.175H99.0072L101.386 96.506H100.983L103.362 90.175H104.207L101.62 97H100.749L98.4612 91.046H98.7342L96.4332 97H95.5622ZM107.354 97.065C106.79 97.065 106.257 96.987 105.755 96.831C105.252 96.6663 104.858 96.4627 104.572 96.22L104.988 95.492C105.265 95.7 105.62 95.882 106.054 96.038C106.487 96.1853 106.942 96.259 107.419 96.259C108.069 96.259 108.537 96.1593 108.823 95.96C109.109 95.752 109.252 95.479 109.252 95.141C109.252 94.8897 109.169 94.6947 109.005 94.556C108.849 94.4087 108.641 94.3003 108.381 94.231C108.121 94.153 107.83 94.088 107.51 94.036C107.189 93.984 106.868 93.9233 106.548 93.854C106.236 93.7847 105.95 93.685 105.69 93.555C105.43 93.4163 105.217 93.23 105.053 92.996C104.897 92.762 104.819 92.45 104.819 92.06C104.819 91.6873 104.923 91.3537 105.131 91.059C105.339 90.7643 105.642 90.5347 106.041 90.37C106.448 90.1967 106.942 90.11 107.523 90.11C107.965 90.11 108.407 90.1707 108.849 90.292C109.291 90.4047 109.655 90.5563 109.941 90.747L109.538 91.488C109.234 91.28 108.909 91.1327 108.563 91.046C108.216 90.9507 107.869 90.903 107.523 90.903C106.907 90.903 106.452 91.0113 106.158 91.228C105.872 91.436 105.729 91.7047 105.729 92.034C105.729 92.294 105.807 92.4977 105.963 92.645C106.127 92.7923 106.34 92.9093 106.6 92.996C106.868 93.074 107.159 93.139 107.471 93.191C107.791 93.243 108.108 93.308 108.42 93.386C108.74 93.4553 109.031 93.555 109.291 93.685C109.559 93.8063 109.772 93.984 109.928 94.218C110.092 94.4433 110.175 94.7423 110.175 95.115C110.175 95.5137 110.062 95.8603 109.837 96.155C109.62 96.441 109.299 96.6663 108.875 96.831C108.459 96.987 107.952 97.065 107.354 97.065Z" fill="black"/>
<defs>
<clipPath id="clip0_2_88">
<rect width="54" height="54" fill="white" transform="translate(53 10)"/>
</clipPath>
</defs>
</svg>
